<svg width="194" height="25" viewBox="0 0 194 25" fill="none" xmlns="http://www.w3.org/2000/svg">
<path d="M31.36 1.844L25.12 24.18H19.84L15.648 8.276L11.264 24.18L6.016 24.212L0 1.844H4.8L8.736 19.188L13.28 1.844H18.272L22.56 19.092L26.528 1.844H31.36Z" fill="white"/>
<path d="M50.7653 14.932C50.7653 15.572 50.7226 16.148 50.6373 16.66H37.6772C37.7839 17.94 38.2319 18.9427 39.0213 19.668C39.8106 20.3933 40.7812 20.756 41.9333 20.756C43.5972 20.756 44.7813 20.0413 45.4853 18.612H50.3173C49.8053 20.3187 48.8239 21.7267 47.3732 22.836C45.9226 23.924 44.1413 24.468 42.0293 24.468C40.3226 24.468 38.7866 24.0947 37.4212 23.348C36.0772 22.58 35.0213 21.5027 34.2533 20.116C33.5066 18.7293 33.1333 17.1293 33.1333 15.316C33.1333 13.4813 33.5066 11.8707 34.2533 10.484C34.9999 9.09733 36.0453 8.03067 37.3893 7.284C38.7333 6.53733 40.2799 6.164 42.0293 6.164C43.7146 6.164 45.2186 6.52667 46.5413 7.252C47.8853 7.97733 48.9199 9.012 49.6453 10.356C50.3919 11.6787 50.7653 13.204 50.7653 14.932ZM46.1253 13.652C46.1039 12.5 45.6879 11.5827 44.8773 10.9C44.0666 10.196 43.0746 9.844 41.9012 9.844C40.7919 9.844 39.8533 10.1853 39.0853 10.868C38.3386 11.5293 37.8799 12.4573 37.7093 13.652H46.1253Z" fill="white"/>
<path d="M58.5153 9.044C59.0913 8.19067 59.8806 7.49733 60.8833 6.964C61.9073 6.43067 63.0699 6.164 64.3713 6.164C65.8859 6.164 67.2513 6.53733 68.4673 7.284C69.7046 8.03067 70.6752 9.09733 71.3792 10.484C72.1046 11.8493 72.4673 13.4387 72.4673 15.252C72.4673 17.0653 72.1046 18.676 71.3792 20.084C70.6752 21.4707 69.7046 22.548 68.4673 23.316C67.2513 24.084 65.8859 24.468 64.3713 24.468C63.0486 24.468 61.8859 24.212 60.8833 23.7C59.9019 23.1667 59.1126 22.484 58.5153 21.652V24.18H54.0353V0.5H58.5153V9.044ZM67.8913 15.252C67.8913 14.1853 67.6673 13.268 67.2193 12.5C66.7926 11.7107 66.2166 11.1133 65.4912 10.708C64.7872 10.3027 64.0193 10.1 63.1873 10.1C62.3766 10.1 61.6086 10.3133 60.8833 10.74C60.1793 11.1453 59.6033 11.7427 59.1553 12.532C58.7286 13.3213 58.5153 14.2493 58.5153 15.316C58.5153 16.3827 58.7286 17.3107 59.1553 18.1C59.6033 18.8893 60.1793 19.4973 60.8833 19.924C61.6086 20.3293 62.3766 20.532 63.1873 20.532C64.0193 20.532 64.7872 20.3187 65.4912 19.892C66.2166 19.4653 66.7926 18.8573 67.2193 18.068C67.6673 17.2787 67.8913 16.34 67.8913 15.252Z" fill="white"/>
<path d="M100.299 6.452L95.1148 24.18H90.2828L87.0508 11.796L83.8187 24.18H78.9548L73.7387 6.452H78.2828L81.4187 19.956L84.8108 6.452H89.5468L92.8747 19.924L96.0107 6.452H100.299Z" fill="white"/>
<path d="M110.595 24.468C108.888 24.468 107.352 24.0947 105.987 23.348C104.621 22.58 103.544 21.5027 102.755 20.116C101.987 18.7293 101.603 17.1293 101.603 15.316C101.603 13.5027 101.997 11.9027 102.787 10.516C103.597 9.12933 104.696 8.06267 106.083 7.316C107.469 6.548 109.016 6.164 110.723 6.164C112.429 6.164 113.976 6.548 115.363 7.316C116.749 8.06267 117.837 9.12933 118.627 10.516C119.437 11.9027 119.843 13.5027 119.843 15.316C119.843 17.1293 119.427 18.7293 118.595 20.116C117.784 21.5027 116.675 22.58 115.267 23.348C113.88 24.0947 112.323 24.468 110.595 24.468ZM110.595 20.564C111.405 20.564 112.163 20.372 112.867 19.988C113.592 19.5827 114.168 18.9853 114.595 18.196C115.021 17.4067 115.235 16.4467 115.235 15.316C115.235 13.6307 114.787 12.34 113.891 11.444C113.016 10.5267 111.939 10.068 110.659 10.068C109.379 10.068 108.301 10.5267 107.427 11.444C106.573 12.34 106.147 13.6307 106.147 15.316C106.147 17.0013 106.563 18.3027 107.395 19.22C108.248 20.116 109.315 20.564 110.595 20.564Z" fill="white"/>
<path d="M145.145 6.196C147.321 6.196 149.07 6.868 150.393 8.212C151.737 9.53467 152.409 11.3907 152.409 13.78V24.18H147.929V14.388C147.929 13.0013 147.577 11.9453 146.873 11.22C146.169 10.4733 145.209 10.1 143.993 10.1C142.777 10.1 141.806 10.4733 141.081 11.22C140.377 11.9453 140.025 13.0013 140.025 14.388V24.18H135.545V14.388C135.545 13.0013 135.193 11.9453 134.489 11.22C133.785 10.4733 132.825 10.1 131.609 10.1C130.372 10.1 129.39 10.4733 128.665 11.22C127.961 11.9453 127.609 13.0013 127.609 14.388V24.18H123.129V6.452H127.609V8.596C128.185 7.84933 128.921 7.26267 129.817 6.836C130.734 6.40933 131.737 6.196 132.825 6.196C134.212 6.196 135.449 6.49467 136.537 7.092C137.625 7.668 138.468 8.5 139.065 9.588C139.641 8.564 140.473 7.74267 141.561 7.124C142.67 6.50533 143.865 6.196 145.145 6.196Z" fill="white"/>
<path d="M173.14 14.932C173.14 15.572 173.098 16.148 173.012 16.66H160.052C160.159 17.94 160.607 18.9427 161.396 19.668C162.186 20.3933 163.156 20.756 164.308 20.756C165.972 20.756 167.156 20.0413 167.86 18.612H172.692C172.18 20.3187 171.199 21.7267 169.748 22.836C168.298 23.924 166.516 24.468 164.404 24.468C162.698 24.468 161.162 24.0947 159.796 23.348C158.452 22.58 157.396 21.5027 156.628 20.116C155.882 18.7293 155.508 17.1293 155.508 15.316C155.508 13.4813 155.882 11.8707 156.628 10.484C157.375 9.09733 158.42 8.03067 159.764 7.284C161.108 6.53733 162.655 6.164 164.404 6.164C166.09 6.164 167.594 6.52667 168.916 7.252C170.26 7.97733 171.295 9.012 172.02 10.356C172.767 11.6787 173.14 13.204 173.14 14.932ZM168.5 13.652C168.479 12.5 168.063 11.5827 167.252 10.9C166.442 10.196 165.45 9.844 164.276 9.844C163.167 9.844 162.228 10.1853 161.46 10.868C160.714 11.5293 160.255 12.4573 160.084 13.652H168.5Z" fill="white"/>
<path d="M186.234 6.196C188.346 6.196 190.053 6.868 191.354 8.212C192.656 9.53467 193.306 11.3907 193.306 13.78V24.18H188.826V14.388C188.826 12.98 188.474 11.9027 187.77 11.156C187.066 10.388 186.106 10.004 184.89 10.004C183.653 10.004 182.672 10.388 181.946 11.156C181.242 11.9027 180.89 12.98 180.89 14.388V24.18H176.41V6.452H180.89V8.66C181.488 7.892 182.245 7.29467 183.162 6.868C184.101 6.42 185.125 6.196 186.234 6.196Z" fill="white"/>
</svg>
